<mxfile host="app.diagrams.net" modified="2021-02-11T09:37:32.883Z" agent="5.0 (Macintosh; Intel Mac OS X 10_15_6) AppleWebKit/605.1.15 (KHTML, like Gecko) Version/14.0.3 Safari/605.1.15" etag="VO6UHJDa78Vs5lIsqdCm" version="14.3.0" type="github">
  <diagram id="W4jrwCIvEfhI67SaHGuj" name="Page-1">
    <mxGraphModel dx="1789" dy="1132" grid="1" gridSize="10" guides="1" tooltips="1" connect="1" arrows="1" fold="1" page="1" pageScale="1" pageWidth="827" pageHeight="1169" math="0" shadow="0">
      <root>
        <mxCell id="0" />
        <mxCell id="1" parent="0" />
        <mxCell id="xkqjxuS_WzjCwuemfsHj-6" style="edgeStyle=orthogonalEdgeStyle;rounded=0;orthogonalLoop=1;jettySize=auto;html=1;exitX=0.5;exitY=0;exitDx=0;exitDy=0;entryX=0.5;entryY=1;entryDx=0;entryDy=0;endArrow=none;endFill=0;" edge="1" parent="1" source="xkqjxuS_WzjCwuemfsHj-3" target="xkqjxuS_WzjCwuemfsHj-5">
          <mxGeometry relative="1" as="geometry" />
        </mxCell>
        <mxCell id="xkqjxuS_WzjCwuemfsHj-3" value="&lt;p style=&quot;margin:0px;margin-top:6px;text-align:center;&quot;&gt;&lt;b&gt;Component&lt;/b&gt;&lt;/p&gt;&lt;hr/&gt;&lt;p style=&quot;margin:0px;margin-left:8px;&quot;&gt;+ Attribute1: Type&lt;br/&gt;+ Attribute2: Type&lt;/p&gt;" style="align=left;overflow=fill;html=1;dropTarget=0;" vertex="1" parent="1">
          <mxGeometry x="324" y="430" width="180" height="80" as="geometry" />
        </mxCell>
        <mxCell id="xkqjxuS_WzjCwuemfsHj-4" value="" style="shape=component;jettyWidth=8;jettyHeight=4;" vertex="1" parent="xkqjxuS_WzjCwuemfsHj-3">
          <mxGeometry x="1" width="20" height="20" relative="1" as="geometry">
            <mxPoint x="-24" y="4" as="offset" />
          </mxGeometry>
        </mxCell>
        <mxCell id="xkqjxuS_WzjCwuemfsHj-5" value="EventController" style="shape=module;align=left;spacingLeft=20;align=center;verticalAlign=top;" vertex="1" parent="1">
          <mxGeometry x="344" y="250" width="140" height="50" as="geometry" />
        </mxCell>
      </root>
    </mxGraphModel>
  </diagram>
</mxfile>
